# xmcd
#
# Track frame offsets:
#       150
#       22632
#       42750
#       60742
#       79720
#       95840
#       120877
#       133807
#       148207
#       172732
#       190325
#       226845
#
# Disc length: 4440 seconds
#
# Revision: 0
# Processed by: cddbd v1.5.2PL0 Copyright (c) Steve Scherf et al.
# Submitted via: WhereIsIt 2010.1026
#
DISCID=9311560c
DTITLE=Boyd Tinsley - True Reflections
DYEAR=1900
DGENRE=
TTITLE0=It's Alright
TTITLE1=Show Me
TTITLE2=So Glad
TTITLE3=Listen
TTITLE4=Cause It's Time
TTITLE5=Long Time To Wait
TTITLE6=Perfect World
TTITLE7=Cinnamon Girl
TTITLE8=Run
TTITLE9=What A Time For Love
TTITLE10=True Reflections
TTITLE11=data
EXTD=
EXTT0=
EXTT1=
EXTT2=
EXTT3=
EXTT4=
EXTT5=
EXTT6=
EXTT7=
EXTT8=
EXTT9=
EXTT10=
EXTT11=
PLAYORDER=
